:SAMPLES-PER-SECOND 30
:FULLY-SPECIFIED
:DEGREES
1052
root  -65.5144 40.4525 9.96892 155.98 79.9043 160.287
RightUpLeg  3.88575 -10.3664 -4.4485
RightLeg  10.7619 19.2376 4.01983
RightFoot  -12.3416 -0.0613797 2.55597
RightToes  5.82063e-011 0 -3.6325e-017
Spine  5.49798 -0.994519 12.9794
Spine1  10.8458 0.936244 -3.85382
HEad  -14.661 -4.20801 -4.52264
LeftShoulder1  0.124797 3.16108 -30.294
LeftArm  -17.1182 7.86282 -32.5343
LeftForeArm  68.5633 -78.9608 -89.8327
LeftHand  -0.0715368 1.6448 1.97603
RightShoulder  -0.467555 -4.91099 26.3606
RightArm  -14.6194 -7.34219 43.0414
RightForeArm  125.191 69.8457 147.583
RightHand  -0.0356822 -2.85992 -1.07316
LeftUpLeg  -8.65696 3.79518 4.18119
LeftLeg  25.867 -0.884331 -0.144497
LeftFoot  -4.95467 0.352433 -5.78245
LeftToes  1.54581e-011 7.46816e-011 -4.69922e-011
1053
root  -65.1409 40.4855 9.76302 152.275 81.1139 156.436
RightUpLeg  4.49618 -10.3237 -4.87159
RightLeg  10.2806 20.6971 3.84678
RightFoot  -12.4201 -0.0617208 2.37666
RightToes  5.82063e-011 0 -3.6325e-017
Spine  4.71079 -0.894646 12.564
Spine1  11.6003 0.916116 -4.04175
HEad  -15.2434 -3.38778 -4.67041
LeftShoulder1  0.128613 3.15024 -30.2486
LeftArm  -17.5793 7.01793 -33.0055
LeftForeArm  68.9299 -78.9696 -89.9906
LeftHand  -0.0627947 1.81204 1.759
RightShoulder  -0.444139 -4.84173 26.2831
RightArm  -14.9841 -7.64738 43.0869
RightForeArm  125.694 69.4457 148.314
RightHand  -0.0219304 -1.59433 -0.353982
LeftUpLeg  -9.16207 4.72113 3.65935
LeftLeg  21.0221 -1.12741 -0.154973
LeftFoot  -4.49323 0.396478 -6.16694
LeftToes  1.54581e-011 7.46816e-011 -4.69922e-011
1054
root  -64.765 40.522 9.56649 149.423 82.0614 153.46
RightUpLeg  5.23739 -10.2278 -5.13045
RightLeg  9.55912 21.7237 3.58203
RightFoot  -12.3162 -0.0647801 2.195
RightToes  5.82063e-011 0 -3.6325e-017
Spine  4.52568 -0.835679 11.9656
Spine1  11.5605 0.81012 -3.99125
HEad  -15.232 -2.50958 -4.69122
LeftShoulder1  0.0743277 3.29855 -30.087
LeftArm  -17.524 6.42372 -33.4218
LeftForeArm  69.0255 -78.9847 -89.7184
LeftHand  -0.0588379 1.37592 1.50653
RightShoulder  -0.523911 -5.06902 26.6807
RightArm  -15.0693 -7.804 42.3953
RightForeArm  123.93 69.2111 148.47
RightHand  -0.0938795 -2.06645 -2.95206
LeftUpLeg  -9.60686 5.36459 3.28233
LeftLeg  16.0952 -1.44562 -0.155106
LeftFoot  -3.76202 0.466568 -6.70962
LeftToes  1.54581e-011 7.46816e-011 -4.69922e-011
1055
root  -64.371 40.5286 9.34844 146.836 82.7446 150.809
RightUpLeg  5.95345 -10.0745 -5.34615
RightLeg  9.15211 22.3685 3.21135
RightFoot  -12.5943 -0.0626165 2.08343
RightToes  5.82063e-011 0 -3.6325e-017
Spine  4.61103 -1.00368 11.506
Spine1  11.1877 0.606462 -4.24752
HEad  -16.8594 -3.34129 -3.95557
LeftShoulder1  0.0676658 3.31647 -29.9755
LeftArm  -17.7582 6.19131 -33.3812
LeftForeArm  69.6673 -78.9824 -90.4155
LeftHand  -0.0636121 1.32259 1.64216
RightShoulder  -0.457932 -4.86074 26.8578
RightArm  -15.2462 -8.66656 42.1897
RightForeArm  125.115 68.6726 149.453
RightHand  -0.0781883 -2.71328 -2.81134
LeftUpLeg  -9.95632 5.6025 2.83793
LeftLeg  11.5686 -1.63535 -0.172275
LeftFoot  -2.54045 0.540322 -6.80098
LeftToes  1.54581e-011 7.46816e-011 -4.69922e-011
1056
root  -63.9447 40.498 9.11276 145.753 83.4408 149.809
RightUpLeg  6.75367 -10.0748 -5.50927
RightLeg  9.07374 23.1352 3.1657
RightFoot  -12.9026 -0.0644187 1.68281
RightToes  5.82063e-011 0 -3.6325e-017
Spine  4.8712 -0.928779 10.8328
Spine1  10.7355 0.465999 -3.63391
HEad  -16.0184 -3.1913 -4.5509
LeftShoulder1  0.0880918 3.2609 -30.2126
LeftArm  -17.6036 5.83152 -33.3414
LeftForeArm  70.4728 -78.9959 -90.8782
LeftHand  -0.0618909 1.68189 1.67002
RightShoulder  -0.501924 -4.99559 26.8166
RightArm  -15.5224 -9.47147 41.9079
RightForeArm  125.698 68.2297 150.179
RightHand  -0.0545527 -3.57975 -2.34839
LeftUpLeg  -10.2503 5.57863 2.65476
LeftLeg  8.18121 -1.3712 -0.271998
LeftFoot  -0.866652 0.674781 -7.31068
LeftToes  1.54581e-011 7.46816e-011 -4.69922e-011
1057
root  -63.4614 40.4237 8.85462 146.629 84.0488 150.887
RightUpLeg  7.67924 -9.76429 -5.35997
RightLeg  9.18351 23.3783 2.8455
RightFoot  -13.5937 -0.0608595 1.58106
RightToes  5.82063e-011 0 -3.6325e-017
Spine  4.79784 -0.936025 10.22
Spine1  10.759 0.241067 -2.97592
HEad  -15.1906 -1.98591 -4.40894
LeftShoulder1  0.0289551 3.42532 -30.6642
LeftArm  -17.3452 5.22915 -32.9612
LeftForeArm  70.5925 -79.003 -90.8321
LeftHand  -0.0384912 1.8751 0.960738
RightShoulder  -0.476635 -4.93026 26.562
RightArm  -15.6844 -10.0926 41.9868
RightForeArm  125.923 67.9359 150.624
RightHand  -0.0545784 -3.28277 -2.0363
LeftUpLeg  -10.5762 5.59097 2.58641
LeftLeg  6.62498 -1.44803 -0.465315
LeftFoot  0.46183 0.72669 -7.0519
LeftToes  1.54581e-011 7.46816e-011 -4.69922e-011
1058
root  -62.9112 40.3059 8.55325 151.214 84.2776 155.915
RightUpLeg  9.07861 -9.79261 -5.3865
RightLeg  9.31217 23.4367 2.8426
RightFoot  -14.4608 -0.0628999 1.29595
RightToes  5.82063e-011 0 -3.6325e-017
Spine  4.32826 -1.09119 9.9803
Spine1  11.4998 0.00391501 -2.72356
HEad  -15.2335 -1.62306 -4.09183
LeftShoulder1  0.0232739 3.44032 -30.5113
LeftArm  -17.0007 4.45001 -33.1426
LeftForeArm  70.3167 -78.9861 -90.9513
LeftHand  -0.0435013 1.88574 1.12147
RightShoulder  -0.487782 -4.9554 26.7198
RightArm  -16.0479 -10.4501 41.4708
RightForeArm  125.365 67.7798 150.781
RightHand  -0.0799853 -2.22746 -2.52011
LeftUpLeg  -10.8099 5.19717 2.39391
LeftLeg  6.95702 -1.11351 -0.269883
LeftFoot  1.25726 0.730948 -6.68389
LeftToes  1.54581e-011 7.46816e-011 -4.69922e-011
1059
root  -62.3017 40.1477 8.22346 156.258 84.6826 161.31
RightUpLeg  10.1905 -9.86313 -5.39094
RightLeg  10.0595 23.6844 3.09543
RightFoot  -15.3991 -0.08654 0.515871
RightToes  5.82063e-011 0 -3.6325e-017
Spine  3.75815 -1.03058 10.1079
Spine1  12.0796 0.119971 -2.82185
HEad  -17.24 -4.32112 -2.82495
LeftShoulder1  0.028463 3.42537 -30.2395
LeftArm  -16.4491 3.9241 -33.3986
LeftForeArm  71.0749 -78.9833 -91.702
LeftHand  -0.0699316 1.68547 1.9403
RightShoulder  -0.599254 -5.25579 27.4791
RightArm  -16.3069 -10.2672 40.6805
RightForeArm  125.528 67.7847 150.788
RightHand  -0.0519296 -3.40321 -2.02645
LeftUpLeg  -10.8507 5.24396 2.28579
LeftLeg  8.40495 -0.972143 -0.17724
LeftFoot  1.70258 0.643355 -5.71307
LeftToes  1.54581e-011 7.46816e-011 -4.69922e-011
1060
root  -61.629 39.9841 7.89539 160.343 85.0743 165.781
RightUpLeg  11.4474 -9.48272 -5.20652
RightLeg  10.6454 23.5529 2.7877
RightFoot  -16.5342 -0.109841 0.0279877
RightToes  5.82063e-011 0 -3.6325e-017
Spine  3.51711 -0.929593 9.94529
Spine1  11.9713 0.312796 -3.11006
HEad  -16.3542 -5.24252 -2.14886
LeftShoulder1  0.0385508 3.39657 -29.8267
LeftArm  -15.8044 4.03484 -33.4564
LeftForeArm  72.9061 -78.9623 -93.6256
LeftHand  -0.0773672 1.36371 2.03391
RightShoulder  -0.564913 -5.1548 27.4474
RightArm  -16.3692 -12.2744 39.6426
RightForeArm  125.849 67.0915 151.768
RightHand  -0.043843 -4.07104 -2.28922
LeftUpLeg  -10.4765 5.27165 2.05776
LeftLeg  10.0908 -1.1191 -0.108097
LeftFoot  2.73939 0.379921 -3.26887
LeftToes  1.54581e-011 7.46816e-011 -4.69922e-011
1061
root  -60.9112 39.9268 7.57428 155.669 85.1746 161.791
RightUpLeg  13.7073 -9.07319 -5.91394
RightLeg  9.90119 23.6091 1.81924
RightFoot  -17.2805 -0.0991508 0.341373
RightToes  5.82063e-011 0 -3.6325e-017
Spine  3.25243 -0.798601 7.84681
Spine1  12.4488 0.209745 -2.59601
HEad  -15.5588 -4.43468 -1.80112
LeftShoulder1  -0.0480424 3.63567 -30.2575
LeftArm  -15.2828 3.94892 -32.8784
LeftForeArm  75.5481 -78.9072 -96.4775
LeftHand  -0.0513271 2.19771 1.47937
RightShoulder  -0.619253 -5.31238 27.5177
RightArm  -16.7462 -12.7911 39.0658
RightForeArm  128.608 66.813 152.423
RightHand  -0.0204205 -7.96998 -1.34488
LeftUpLeg  -9.66686 4.89626 1.16233
LeftLeg  12.1194 -0.536524 0.0879956
LeftFoot  3.30686 -0.13402 0.923091
LeftToes  1.54581e-011 7.46816e-011 -4.69922e-011
1062
root  -60.2271 39.7996 7.23978 151.288 85.2415 158.099
RightUpLeg  14.987 -7.37466 -6.03995
RightLeg  11.0054 22.0948 1.35276
RightFoot  -18.2695 -0.101854 0.365644
RightToes  5.82063e-011 0 -3.6325e-017
Spine  3.45198 -0.656825 5.78342
Spine1  12.7136 0.0881657 -1.82729
HEad  -15.22 -3.93696 -1.20447
LeftShoulder1  -0.187024 4.01233 -30.6485
LeftArm  -14.7334 3.62016 -32.5905
LeftForeArm  76.423 -78.8753 -97.5294
LeftHand  -0.0538425 1.86467 1.46512
RightShoulder  -0.642691 -5.36618 27.7983
RightArm  -16.9734 -13.4723 38.2034
RightForeArm  129.8 66.7085 152.679
RightHand  -0.0563978 -9.10557 0.119226
LeftUpLeg  -9.23004 4.46484 0.569123
LeftLeg  15.0825 0.0214269 0.324552
LeftFoot  1.44986 -0.174688 1.47221
LeftToes  1.54581e-011 7.46816e-011 -4.69922e-011
